<svg xmlns="http://www.w3.org/2000/svg" viewBox="0 0 4820 2460" fill="none">
  <g transform="translate(0,2460) scale(1,-1)">
    <!-- Bronze ribbon sections -->
    <g fill="#b5651d" stroke="none">
      <!-- Upper left loop -->
      <path d="M996 2395 c-52 -18 -93 -62 -160 -168 -84 -135 -148 -304 -176 -469 -14 -82 -8 -327 10 -383 l13 -40 12 40 c31 104 116 235 193 297 146 118 390 175 504 117 40 -21 254 -219 417 -387 l83 -87 213 220 214 220 -297 296 c-326 326 -324 324 -474 349 -98 16 -504 12 -552 -5z"/>
      <!-- Main crossing body -->
      <path d="M3302 2399 c-90 -14 -163 -44 -234 -97 -65 -48 -460 -442 -1197 -1190 -229 -233 -449 -450 -489 -483 -203 -164 -381 -221 -623 -198 -113 11 -245 39 -351 75 l-68 23 38 -45 c20 -25 113 -117 205 -204 130 -123 183 -167 235 -192 l67 -33 308 -3 c349 -3 378 0 500 60 80 39 93 51 567 528 267 268 643 647 835 842 193 195 381 377 419 405 149 110 260 145 466 145 150 0 224 -12 397 -67 l108 -34 -206 204 c-219 218 -242 235 -354 253 -84 14 -547 22 -623 11z"/>
      <!-- Lower left loop -->
      <path d="M426 2014 c-268 -270 -319 -326 -348 -382 l-33 -66 0 -330 0 -331 25 -45 c67 -119 331 -257 583 -305 44 -8 132 -15 196 -15 138 0 231 22 331 78 l65 36 -77 13 c-101 17 -173 45 -247 94 -152 102 -297 326 -358 554 -23 88 -26 119 -27 265 -1 239 30 368 149 618 35 72 62 132 60 132 -3 0 -146 -142 -319 -316z"/>
    </g>
    <!-- Dark brown ribbon sections -->
    <g fill="#15100c" stroke="none">
      <!-- Upper right loop -->
      <path d="M3830 1905 c-94 -21 -250 -88 -250 -107 0 -4 23 -8 51 -8 105 0 229 -48 326 -126 60 -49 151 -175 210 -290 183 -358 175 -701 -26 -1099 l-68 -135 60 53 c34 28 177 167 318 307 351 350 346 338 335 760 -7 269 -12 307 -49 361 -62 93 -282 210 -496 266 -123 31 -314 40 -411 18z"/>
      <!-- Lower right crossing -->
      <path d="M2719 920 c-112 -116 -206 -215 -207 -220 -5 -13 524 -534 585 -577 90 -64 115 -68 444 -68 l296 0 36 28 c77 59 185 242 237 402 51 159 73 304 67 430 -6 115 -23 215 -37 215 -4 0 -11 -20 -14 -45 -12 -78 -72 -183 -151 -262 -160 -161 -421 -229 -563 -147 -26 15 -144 123 -263 241 -118 117 -218 213 -221 213 -3 0 -97 -95 -209 -210z"/>
    </g>
  </g>
</svg>
